# xmcd
# Copyright (C) 1995-1998 Ti Kan
#
# Track frame offsets:
#       150
#       19527
#       36185
#       59509
#       80283
#       102580
#       117945
#       135653
#       153868
#       169733
#
# Disc length: 2459 seconds
#
# Revision: 0
# Processed by: cddbd v1.5.2PL0 Copyright (c) Steve Scherf et al.
# Submitted via: CD-Import v1.0
#
DISCID=7909990a
DTITLE=Danzig - Danzig
DYEAR=1988
DGENRE=
TTITLE0=Twist Of Cain
TTITLE1=Not Of This World
TTITLE2=She Rides
TTITLE3=Soul On Fire
TTITLE4=Am I Demon
TTITLE5=Mother
TTITLE6=Possession
TTITLE7=End Of Time
TTITLE8=The Hunter
TTITLE9=Evil Thing
EXTD=
EXTT0=
EXTT1=
EXTT2=
EXTT3=
EXTT4=
EXTT5=
EXTT6=
EXTT7=
EXTT8=
EXTT9=
PLAYORDER=
